<svg xmlns="http://www.w3.org/2000/svg" width="512" height="512" viewBox="0 0 512 512">
  <defs>
    <clipPath id="ic">
      <rect x="0" y="0" width="512" height="512" rx="112" ry="112"/>
    </clipPath>
  </defs>

  <!-- 보라 배경 -->
  <rect x="0" y="0" width="512" height="512" rx="112" fill="#6C63FF"/>

  <!-- 캐릭터 몸통 -->
  <ellipse cx="256" cy="310" rx="130" ry="138" fill="white"/>
  <rect x="126" y="190" width="260" height="120" fill="white"/>
  <ellipse cx="256" cy="190" rx="130" ry="54" fill="white"/>

  <!-- 귀 -->
  <circle cx="184" cy="155" r="26" fill="white"/>
  <circle cx="328" cy="155" r="26" fill="white"/>
  <circle cx="184" cy="155" r="14" fill="#6C63FF"/>
  <circle cx="328" cy="155" r="14" fill="#6C63FF"/>

  <!-- 눈 -->
  <ellipse cx="218" cy="280" rx="16" ry="18" fill="#6C63FF"/>
  <ellipse cx="294" cy="280" rx="16" ry="18" fill="#6C63FF"/>
  <!-- 눈 하이라이트 -->
  <circle cx="224" cy="274" r="6" fill="white"/>
  <circle cx="300" cy="274" r="6" fill="white"/>

  <!-- 미소 -->
  <path d="M220 318 Q256 348 292 318" fill="none" stroke="#6C63FF" stroke-width="8" stroke-linecap="round"/>

  <!-- 볼터치 -->
  <ellipse cx="196" cy="308" rx="22" ry="14" fill="#A89BFF" opacity="0.45"/>
  <ellipse cx="316" cy="308" rx="22" ry="14" fill="#A89BFF" opacity="0.45"/>

  <!-- 상승 차트 -->
  <polyline points="270,218 292,200 314,208 338,185" fill="none" stroke="#A89BFF" stroke-width="7" stroke-linecap="round" stroke-linejoin="round"/>
  <circle cx="338" cy="185" r="9" fill="#A89BFF"/>
</svg>
